<?xml version="1.0" encoding="UTF-8"?>
<svg version="1.1" xmlns="http://www.w3.org/2000/svg" width="512" height="512">
<path d="M0 0 C0.76828125 -0.00708984 1.5365625 -0.01417969 2.328125 -0.02148438 C12.22551131 0.08609591 20.48423131 3.66284664 29.0625 8.3125 C29.96186279 8.79154785 30.86122559 9.2705957 31.7878418 9.76416016 C39.45200767 13.87367148 47.02024157 18.15192197 54.57495117 22.45849609 C61.45960774 26.37824442 68.39806785 30.18473478 75.375 33.9375 C84.22621037 38.70061798 92.99477091 43.59115896 101.73046875 48.5625 C108.56599762 52.44187246 115.45416871 56.21270625 122.375 59.9375 C131.18737523 64.68295374 139.93806322 69.52341175 148.6315918 74.48339844 C153.73458372 77.3928877 158.85767747 80.25397025 164.0234375 83.05078125 C165.13533447 83.65801025 166.24723145 84.26523926 167.39282227 84.89086914 C169.51499307 86.04811664 171.64271865 87.19526419 173.77709961 88.32983398 C187.76690086 95.99890716 197.44251682 106.15944955 202.375 121.4375 C205.67668819 134.73229778 203.19543025 148.21813127 196.375 159.9375 C187.80187864 173.54267085 173.10338164 181.4632984 160.125 190.44921875 C155.29430101 193.79495452 150.48325772 197.16692146 145.6875 200.5625 C139.59664261 204.87334736 133.49057103 209.1617805 127.375 213.4375 C121.19814031 217.75652905 115.02932903 222.08642428 108.875 226.4375 C101.87090239 231.38935729 94.84610748 236.31113783 87.81640625 241.2265625 C82.49320465 244.95034297 77.17967568 248.68738377 71.875 252.4375 C63.24258377 258.53677735 54.59745522 264.61742468 45.92431641 270.65869141 C44.20841524 271.85597697 42.49458168 273.0562306 40.78271484 274.25927734 C38.25599801 276.03433055 35.72252669 277.79934193 33.1875 279.5625 C32.4342041 280.09480225 31.6809082 280.62710449 30.90478516 281.17553711 C18.87581293 289.49372774 6.03005425 293.25764627 -8.6015625 290.97265625 C-22.0191673 288.04297251 -32.34532641 279.98367239 -43.27441406 272.12011719 C-47.30558365 269.23448977 -51.37275054 266.40052932 -55.4375 263.5625 C-57.12766681 262.38029789 -58.81777055 261.1980056 -60.5078125 260.015625 C-62.21351176 258.82287389 -63.91924099 257.63016566 -65.625 256.4375 C-75.82812503 249.3034812 -86.02628359 242.16313086 -96.19213867 234.97607422 C-101.65852596 231.11376528 -107.13976211 227.27297932 -112.625 223.4375 C-119.49318555 218.635013 -126.34825165 213.814634 -133.19140625 208.9765625 C-138.65807021 205.11413451 -144.13966712 201.27335682 -149.625 197.4375 C-152.95872474 195.10472547 -156.29197967 192.77128084 -159.625 190.4375 C-160.78708984 189.62418213 -160.78708984 189.62418213 -161.97265625 188.79443359 C-166.24233762 185.80364263 -170.50150257 182.79896244 -174.74560547 179.77197266 C-176.51175238 178.51791199 -178.28832273 177.28000908 -180.06640625 176.04296875 C-191.77716497 167.67395344 -199.47559084 157.70888979 -202.625 143.4375 C-203.65719565 126.66855104 -201.35104738 113.62897249 -190.0402832 100.61401367 C-184.55385311 94.69585048 -178.40053367 91.12360721 -171.3125 87.375 C-170.11621891 86.72862132 -168.92076001 86.08071897 -167.72607422 85.43139648 C-165.25294208 84.08871043 -162.77645918 82.75253855 -160.29736328 81.42089844 C-154.58053396 78.34276483 -148.91899583 75.16505343 -143.25 72 C-133.27625444 66.45386873 -123.28704887 60.9361012 -113.2925415 55.42752075 C-103.44907094 50.00181658 -93.61984648 44.55093748 -83.79785156 39.08642578 C-77.97028252 35.8459571 -72.13807986 32.61424308 -66.296875 29.3984375 C-65.68400131 29.06090454 -65.07112762 28.72337158 -64.43968201 28.37561035 C-61.36640129 26.68327282 -58.29227911 24.9924889 -55.21704102 23.30371094 C-49.48149589 20.14940056 -43.76954173 16.9614799 -38.10546875 13.6796875 C-37.08227539 13.08945801 -36.05908203 12.49922852 -35.00488281 11.89111328 C-33.12498064 10.80266677 -31.25007218 9.70551869 -29.38183594 8.59716797 C-20.06953767 3.21299856 -10.84538766 -0.2849212 0 0 Z " fill="#050000" transform="translate(255.625,31.5625)"/>
<path d="M0 0 C1.5146942 1.0680002 3.01428718 2.15766274 4.5 3.265625 C5.31251221 3.84618652 6.12502441 4.42674805 6.9621582 5.02490234 C9.48894781 6.83641537 11.99487894 8.67430443 14.5 10.515625 C16.05468542 11.6398266 17.61064008 12.7622754 19.16796875 13.8828125 C21.42736123 15.50991502 23.68516412 17.13892689 25.93725586 18.77612305 C31.41013879 22.75372867 36.95373974 26.61394253 42.54077148 30.42895508 C48.02032046 34.17370792 53.44682159 37.98953421 58.86352539 41.82446289 C64.39603118 45.74020919 69.94477801 49.63218228 75.5 53.515625 C82.36824788 58.31802246 89.2232521 63.13849132 96.06640625 67.9765625 C101.53306909 71.8389897 107.01452166 75.67997755 112.5 79.515625 C118.67683462 83.83469409 124.84545134 88.16485772 131 92.515625 C133.83276248 94.51643457 136.6661738 96.51632232 139.5 98.515625 C140.34191895 99.10972168 141.18383789 99.70381836 142.05126953 100.31591797 C144.72001859 102.19735923 147.39100186 104.0755898 150.0625 105.953125 C150.88363281 106.53255859 151.70476562 107.11199219 152.55078125 107.70898438 C156.27028801 110.31932449 160.00807537 112.9014029 163.8125 115.38671875 C164.72128906 115.98311157 164.72128906 115.98311157 165.6484375 116.59155273 C169.24648912 118.38725756 172.62190953 118.34664439 176.5 117.515625 C182.86584791 114.68570555 188.4957223 110.52450628 194.0625 106.390625 C195.64474345 105.23158362 197.22809821 104.07405795 198.8125 102.91796875 C199.59882813 102.3441748 200.38515625 101.77038086 201.1953125 101.17919922 C204.61207416 98.71290537 208.08107057 96.32688607 211.5625 93.953125 C217.70367456 89.76061425 223.79475666 85.50336601 229.86352539 81.20678711 C235.39603118 77.29104081 240.94477801 73.39906772 246.5 69.515625 C252.67688878 65.19663776 258.8456712 60.86670056 265 56.515625 C272.00409761 51.56376771 279.02889252 46.64198717 286.05859375 41.7265625 C291.38179535 38.00278203 296.69532432 34.26574123 302 30.515625 C309.79117078 25.01073388 317.58772868 19.51393108 325.421875 14.0703125 C328.85913321 11.67854262 332.25847205 9.24243491 335.640625 6.7734375 C337.30196986 5.58317493 338.96342416 4.3930651 340.625 3.203125 C341.36991699 2.64568604 342.11483398 2.08824707 342.88232422 1.51391602 C348.23004268 -2.27221137 352.9076547 -3.73354804 359.5 -3.484375 C365.40640798 -1.83832687 368.02474458 0.71159545 371.5 5.515625 C372.75723967 8.03010434 372.73887014 9.89356437 372.8125 12.703125 C372.84988281 13.62480469 372.88726562 14.54648437 372.92578125 15.49609375 C372.12555449 21.17109638 369.57118883 24.95503636 365.09375 28.33203125 C363.73886001 29.26168339 362.37357828 30.1763142 361 31.078125 C359.46465972 32.12342766 357.92951129 33.16901217 356.39453125 34.21484375 C355.59225098 34.75415527 354.7899707 35.2934668 353.96337891 35.84912109 C349.83395105 38.64272611 345.76521884 41.5223346 341.6875 44.390625 C339.99778581 45.57347395 338.30767842 46.7557614 336.6171875 47.9375 C335.77381836 48.52724609 334.93044922 49.11699219 334.06152344 49.72460938 C332.35384115 50.91861979 330.64615885 52.11263021 328.93847656 53.30664062 C319.58951613 59.84412538 310.24799345 66.3914383 300.93286133 72.97705078 C294.6165396 77.43988603 288.27950417 81.8728572 281.94140625 86.3046875 C276.61820565 90.02846727 271.30455295 93.76533614 266 97.515625 C258.99590239 102.46748229 251.97110748 107.38926283 244.94140625 112.3046875 C240.30894782 115.54526705 235.68177817 118.79300561 231.06518555 122.05615234 C229.6924068 123.02629909 228.31887524 123.99538148 226.94458008 124.96337891 C223.08948577 127.67935502 219.24797557 130.4127989 215.41796875 133.1640625 C189.13472224 151.95007242 189.13472224 151.95007242 172.6875 151.828125 C171.89142334 151.82248535 171.09534668 151.8168457 170.27514648 151.81103516 C154.79368589 151.49189493 143.45675394 143.42620436 131.44921875 134.4375 C127.57619565 131.54784293 123.61813942 128.79846657 119.625 126.078125 C114.13404047 122.33128989 108.67527498 118.54452583 103.25 114.703125 C97.07448674 110.33167828 90.8873169 105.97754654 84.6875 101.640625 C83.43634399 100.76531128 83.43634399 100.76531128 82.15991211 99.87231445 C79.60679645 98.08648175 77.05344245 96.3009904 74.5 94.515625 C64.29687497 87.3816062 54.09871641 80.24125586 43.93286133 73.05419922 C38.46647404 69.19189028 32.98523789 65.35110432 27.5 61.515625 C20.63964064 56.71861037 13.79043641 51.90644078 6.95776367 47.07006836 C3.05191205 44.30793186 -0.86483112 41.56240192 -4.79296875 38.83203125 C-5.69015625 38.20748047 -6.58734375 37.58292969 -7.51171875 36.93945312 C-9.24838201 35.73139467 -10.98657627 34.52553303 -12.7265625 33.32226562 C-26.24073168 23.91491447 -26.24073168 23.91491447 -28.14453125 16.98046875 C-28.79421061 12.47554926 -28.37185889 8.67759697 -26.5 4.515625 C-19.39372751 -4.05233155 -9.67375088 -6.10838088 0 0 Z " fill="#050000" transform="translate(83.5,328.484375)"/>
<path d="M0 0 C1.5179861 1.05243401 3.03623621 2.10448727 4.5546875 3.15625 C9.72011254 6.74683798 14.86190355 10.37045508 20 14 C21.45571743 15.02736038 22.91144591 16.0547051 24.3671875 17.08203125 C26.43351273 18.54068511 28.49957783 19.99970156 30.56494141 21.4597168 C36.0318931 25.32283361 41.51400278 29.16398973 47 33 C53.86818555 37.802487 60.72325165 42.622866 67.56640625 47.4609375 C73.03306909 51.3233647 78.51452166 55.16435255 84 59 C90.17683312 63.31906804 96.34562915 67.64898265 102.5 72 C110.26939219 77.49191991 118.06085613 82.95187926 125.859375 88.40234375 C129.35412443 90.8455934 132.8430443 93.29688611 136.328125 95.75390625 C140.50009671 98.69455748 144.68665965 101.61329415 148.88232422 104.52001953 C150.72005662 105.80435592 152.53636638 107.11245075 154.34765625 108.43359375 C159.29462086 111.89159855 163.33053391 114.19034474 169.5 113.66015625 C174.7014355 112.28665219 178.7307396 109.14893195 183 106 C184.37787094 105.00767544 185.75685659 104.01689757 187.13671875 103.02734375 C190.23018559 100.80317684 193.3142626 98.56661859 196.39453125 96.32421875 C200.51135078 93.33834652 204.67527932 90.43025149 208.875 87.5625 C221.86582327 78.68956564 234.7204957 69.6206752 247.56616211 60.53930664 C253.8827556 56.07615116 260.22016265 51.64300077 266.55859375 47.2109375 C271.88179435 43.48715773 277.19544705 39.75028886 282.5 36 C288.65432966 31.64892383 294.82322113 27.31914535 301 23 C307.29936054 18.59419364 313.59340643 14.18110696 319.875 9.75 C320.56440674 9.2648291 321.25381348 8.7796582 321.96411133 8.27978516 C325.31684981 5.91563881 328.65140306 3.53122801 331.95703125 1.1015625 C332.58689941 0.64168945 333.21676758 0.18181641 333.86572266 -0.29199219 C335.03562353 -1.14801721 336.20108978 -2.01015487 337.36083984 -2.87988281 C343.09922541 -7.0676871 347.87044061 -8.55192717 354.82421875 -7.53515625 C359.45258662 -6.39676056 362.20720959 -3.85537912 365.375 -0.4375 C367.63704615 4.34759763 367.96009204 8.79714831 367 14 C364.21529164 20.35171881 360.40414873 23.40594302 354.75 27.25 C353.95150635 27.80937256 353.1530127 28.36874512 352.33032227 28.94506836 C349.89663535 30.64467534 347.45016294 32.32425908 345 34 C343.61810568 34.95387115 342.23657272 35.90826611 340.85546875 36.86328125 C338.23519108 38.6710521 335.60935741 40.47040485 332.98046875 42.265625 C328.16353047 45.56311045 323.40069159 48.93585812 318.63647461 52.30883789 C313.10396882 56.22458419 307.55522199 60.11655728 302 64 C295.82311087 68.31898748 289.65437041 72.64898296 283.5 77 C273.17196981 84.30053436 262.80380306 91.54358566 252.43847656 98.79101562 C243.78111124 104.84488591 235.12667461 110.90244714 226.5 117 C220.17456998 121.46961893 213.84138366 125.92804008 207.5 130.375 C206.68724609 130.94605469 205.87449219 131.51710938 205.03710938 132.10546875 C202.69685402 133.74499137 200.35016145 135.37471477 198 137 C197.21222168 137.54897949 196.42444336 138.09795898 195.61279297 138.66357422 C182.7130666 147.49763855 168.67856152 148.87945774 153.48046875 146.43359375 C141.94028354 143.09852209 132.32234578 134.96204332 122.74902344 127.99658203 C118.96528887 125.24850199 115.13948913 122.56228873 111.3125 119.875 C109.95412716 118.91448651 108.59605618 117.953546 107.23828125 116.9921875 C102.50369602 113.64499785 97.75201103 110.32238251 93 107 C86.13178448 102.19755607 79.27674813 97.37713384 72.43359375 92.5390625 C66.96693091 88.6766353 61.48547834 84.83564745 56 81 C49.82316688 76.68093196 43.65437085 72.35101735 37.5 68 C28.02272955 61.30083886 18.51149809 54.65043366 9 48 C7.29424099 46.80733434 5.58851176 45.61462611 3.8828125 44.421875 C3.04274658 43.83446533 2.20268066 43.24705566 1.3371582 42.6418457 C-1.15555172 40.89735854 -3.64616429 39.14990626 -6.13671875 37.40234375 C-9.37879572 35.12892422 -12.63214236 32.87306812 -15.89453125 30.62890625 C-17.42969174 29.56511028 -18.96484818 28.50130847 -20.5 27.4375 C-21.20020264 26.96103027 -21.90040527 26.48456055 -22.62182617 25.99365234 C-27.91738076 22.30767885 -32.06507992 18.77298862 -33.4375 12.1875 C-34.29022397 7.07115615 -33.64713293 3.45154564 -31 -1 C-21.56537872 -13.05534942 -10.09439254 -7.09364917 0 0 Z " fill="#050000" transform="translate(89,253)"/>
</svg>
